<svg width="172" height="40" viewBox="0 0 172 40" fill="none" xmlns="http://www.w3.org/2000/svg">
<g filter="url(#filter0_d_38_641)">
<path d="M56.8865 27.8316C54.5298 27.8316 52.4466 27.3567 50.6369 26.4079C48.8267 25.4371 47.4276 24.0673 46.4385 22.2989C45.4499 20.5302 44.9554 18.4487 44.9554 16.0545C44.9554 13.6603 45.4499 11.5789 46.4385 9.81019C47.4276 8.01988 48.8267 6.65026 50.6369 5.70117C52.4466 4.73055 54.5298 4.24524 56.8865 4.24524C58.4862 4.24524 59.8958 4.41781 61.1165 4.76289C62.3581 5.08645 63.4942 5.6041 64.5253 6.31589V11.0072C63.5997 10.2308 62.5371 9.66996 61.3375 9.32482C60.1589 8.95816 58.8122 8.77483 57.2971 8.77483C55.8875 8.77483 54.6138 9.07681 53.4777 9.68072C52.3626 10.2631 51.4785 11.1043 50.8265 12.2043C50.1739 13.3044 49.8479 14.5877 49.8479 16.0545C49.8479 17.5428 50.1424 18.8477 50.7314 19.9694C51.342 21.0694 52.1941 21.9214 53.2882 22.5253C54.3823 23.1293 55.6454 23.4313 57.0761 23.4313C58.3807 23.4313 59.5168 23.194 60.4849 22.7195V18.3516H56.918V14.728H65.1248V25.6314C63.0416 27.098 60.2959 27.8316 56.8865 27.8316Z" fill="#81818B"/>
<path d="M66.2331 11.8161H70.8415V14.0486C71.4521 13.2936 72.3042 12.722 73.3983 12.3338C74.4924 11.924 75.7345 11.7191 77.1232 11.7191V15.4398C75.671 15.4398 74.3874 15.6663 73.2723 16.1192C72.1777 16.5722 71.4201 17.2624 70.9996 18.1899V27.3463H66.2331V11.8161Z" fill="#81818B"/>
<path d="M86.2829 27.8316C83.3786 27.8316 81.0954 27.1195 79.4332 25.6958C77.7705 24.2511 76.9395 22.2342 76.9395 19.6458C76.9395 17.079 77.676 15.0515 79.1492 13.5633C80.6433 12.0749 82.7685 11.3308 85.5253 11.3308C87.335 11.3308 88.8706 11.6759 90.1338 12.3661C91.3959 13.0563 92.354 14.0162 93.006 15.2456C93.6586 16.4535 93.9846 17.8232 93.9846 19.3546V21.3282H81.4849C81.8214 23.3127 83.6311 24.305 86.9139 24.305C87.882 24.305 88.8816 24.2187 89.9127 24.0459C90.9438 23.8734 91.8384 23.6361 92.596 23.3342V26.764C91.8594 27.0871 90.9123 27.3462 89.7547 27.5405C88.5976 27.7342 87.44 27.8316 86.2829 27.8316ZM89.4707 18.1575C89.4077 17.1222 89.0286 16.3241 88.3346 15.7633C87.64 15.181 86.6824 14.8897 85.4618 14.8897C84.2627 14.8897 83.3156 15.181 82.621 15.7633C81.9269 16.3457 81.5479 17.1438 81.4849 18.1575H89.4707Z" fill="#81818B"/>
<path d="M103.754 27.8316C100.851 27.8316 98.5673 27.1195 96.9046 25.6958C95.2425 24.2511 94.4109 22.2342 94.4109 19.6458C94.4109 17.079 95.1475 15.0515 96.6206 13.5633C98.1148 12.0749 100.24 11.3308 102.997 11.3308C104.806 11.3308 106.343 11.6759 107.606 12.3661C108.868 13.0563 109.825 14.0162 110.477 15.2456C111.13 16.4535 111.456 17.8232 111.456 19.3546V21.3282H98.9563C99.2929 23.3127 101.103 24.305 104.386 24.305C105.354 24.305 106.354 24.2187 107.384 24.0459C108.415 23.8734 109.31 23.6361 110.067 23.3342V26.764C109.331 27.0871 108.384 27.3462 107.227 27.5405C106.069 27.7342 104.912 27.8316 103.754 27.8316ZM106.943 18.1575C106.879 17.1222 106.501 16.3241 105.807 15.7633C105.111 15.181 104.154 14.8897 102.934 14.8897C101.734 14.8897 100.788 15.181 100.093 15.7633C99.3984 16.3457 99.0199 17.1438 98.9563 18.1575H106.943Z" fill="#81818B"/>
<path d="M112.515 11.8161H117.122V13.725C117.818 12.927 118.638 12.3338 119.585 11.9455C120.553 11.5357 121.563 11.3308 122.615 11.3308C124.678 11.3308 126.214 11.9024 127.223 13.0456C128.255 14.1672 128.771 15.6878 128.771 17.6075V27.3462H124.004V18.1575C124.004 16.1516 123.099 15.1486 121.289 15.1486C120.49 15.1486 119.743 15.3535 119.048 15.7633C118.354 16.1516 117.765 16.734 117.28 17.5104V27.3462H112.515V11.8161Z" fill="#81818B"/>
<path d="M132.975 9.42188C132.239 9.42188 131.619 9.17387 131.114 8.67774C130.608 8.18167 130.356 7.55613 130.356 6.80118C130.356 6.06786 130.608 5.45314 131.114 4.95702C131.619 4.43937 132.239 4.18054 132.975 4.18054C133.712 4.18054 134.333 4.43937 134.838 4.95702C135.343 5.45314 135.596 6.06786 135.596 6.80118C135.596 7.55613 135.343 8.18167 134.838 8.67774C134.333 9.17387 133.712 9.42188 132.975 9.42188ZM130.577 11.8161H135.375V27.3462H130.577V11.8161Z" fill="#81818B"/>
<path d="M143.504 27.8316C142.368 27.8316 141.147 27.7018 139.842 27.4431C138.559 27.2059 137.549 26.8608 136.812 26.4079V22.5901C137.654 23.1077 138.664 23.5283 139.842 23.8518C141.021 24.1752 142.115 24.337 143.125 24.337C143.988 24.337 144.619 24.2616 145.019 24.1108C145.418 23.9597 145.618 23.6793 145.618 23.2695C145.618 22.946 145.503 22.6871 145.271 22.493C145.04 22.2773 144.682 22.0939 144.198 21.943C143.735 21.7704 142.956 21.5224 141.862 21.1988C140.579 20.8106 139.568 20.4223 138.832 20.0341C138.117 19.6242 137.57 19.1174 137.191 18.5134C136.833 17.9095 136.654 17.1329 136.654 16.1839C136.654 14.5662 137.274 13.3583 138.517 12.5603C139.779 11.7406 141.483 11.3308 143.63 11.3308C144.682 11.3308 145.766 11.4494 146.881 11.6867C148.017 11.9024 148.891 12.1936 149.501 12.5603V16.281C148.891 15.8712 148.091 15.5368 147.102 15.278C146.134 15.0192 145.187 14.8897 144.261 14.8897C143.398 14.8897 142.725 14.976 142.241 15.1486C141.778 15.3212 141.546 15.6447 141.546 16.1192C141.546 16.529 141.767 16.8418 142.209 17.0575C142.672 17.2732 143.525 17.5428 144.766 17.8664L145.398 18.0281C146.723 18.3948 147.754 18.8046 148.491 19.2576C149.227 19.689 149.743 20.2174 150.038 20.8429C150.353 21.4469 150.511 22.2126 150.511 23.1401C150.511 24.5637 149.911 25.7068 148.712 26.5697C147.513 27.4107 145.776 27.8316 143.504 27.8316Z" fill="#81818B"/>
<path d="M151.613 3.4364H156.379V13.5956C157.095 12.8407 157.905 12.2799 158.809 11.9132C159.715 11.5249 160.683 11.3308 161.714 11.3308C163.776 11.3308 165.312 11.9024 166.322 13.0456C167.353 14.1672 167.869 15.6878 167.869 17.6076V27.3463H163.103V18.1576C163.103 16.1516 162.198 15.1486 160.388 15.1486C159.588 15.1486 158.842 15.3535 158.147 15.7633C157.452 16.1516 156.863 16.734 156.379 17.5104V27.3463H151.613V3.4364Z" fill="#81818B"/>
<path fill-rule="evenodd" clip-rule="evenodd" d="M28.6772 8.01421C28.6772 12.124 25.4271 15.4556 21.4175 15.4556C17.4079 15.4556 14.1575 12.124 14.1575 8.01421C14.1575 3.9044 17.4079 0.572754 21.4175 0.572754C25.4271 0.572754 28.6772 3.9044 28.6772 8.01421ZM4.53023 14.9148C12.4398 14.3683 19.3332 20.4383 19.9753 28.5628C20.0418 29.4045 20.0386 30.2356 19.9707 31.0504C12.0611 31.5969 5.16774 25.5268 4.52561 17.4024C4.45915 16.5606 4.4623 15.7293 4.53023 14.9148ZM25.0883 30.7659C33.0146 30.1075 38.9363 23.042 38.4034 14.9348C37.6085 14.8651 36.7979 14.8618 35.9763 14.93C28.05 15.5882 22.1282 22.6539 22.6614 30.7611C23.4561 30.831 24.2669 30.8341 25.0883 30.7659Z" fill="#81818B"/>
</g>
<defs>
<filter id="filter0_d_38_641" x="0.477478" y="0.572754" width="171.391" height="38.5118" filterUnits="userSpaceOnUse" color-interpolation-filters="sRGB">
<feFlood flood-opacity="0" result="BackgroundImageFix"/>
<feColorMatrix in="SourceAlpha" type="matrix" values="0 0 0 0 0 0 0 0 0 0 0 0 0 0 0 0 0 0 127 0" result="hardAlpha"/>
<feOffset dy="4"/>
<feGaussianBlur stdDeviation="2"/>
<feComposite in2="hardAlpha" operator="out"/>
<feColorMatrix type="matrix" values="0 0 0 0 0 0 0 0 0 0 0 0 0 0 0 0 0 0 0.25 0"/>
<feBlend mode="normal" in2="BackgroundImageFix" result="effect1_dropShadow_38_641"/>
<feBlend mode="normal" in="SourceGraphic" in2="effect1_dropShadow_38_641" result="shape"/>
</filter>
</defs>
</svg>
