<svg width="145" height="35" viewBox="0 0 145 35" fill="none" xmlns="http://www.w3.org/2000/svg">
<g filter="url(#filter0_d_1_607)">
<path d="M54.6049 12.3896C54.2583 11.751 53.7565 11.2676 53.0997 10.9392C52.4611 10.5926 51.704 10.4192 50.8283 10.4192C49.3139 10.4192 48.1008 10.921 47.1885 11.9244C46.2762 12.9096 45.8202 14.2324 45.8202 15.8926C45.8202 17.6623 46.2946 19.0489 47.2432 20.0523C48.2102 21.0375 49.5329 21.5301 51.2114 21.5301C52.3608 21.5301 53.3278 21.2382 54.1123 20.6544C54.9151 20.0705 55.4988 19.2313 55.8638 18.1366H49.9252V14.6884H60.1056V19.0398C59.759 20.2074 59.166 21.293 58.3268 22.2964C57.5058 23.2998 56.4567 24.1118 55.1796 24.732C53.9025 25.3523 52.4611 25.6625 50.8556 25.6625C48.9582 25.6625 47.2614 25.252 45.7654 24.431C44.2876 23.5918 43.1291 22.4332 42.2899 20.9554C41.4688 19.4776 41.0583 17.79 41.0583 15.8926C41.0583 13.9951 41.4688 12.3075 42.2899 10.8297C43.1291 9.33372 44.2876 8.17516 45.7654 7.35415C47.2432 6.51494 48.9308 6.09528 50.8283 6.09528C53.1271 6.09528 55.061 6.65178 56.63 7.76466C58.2173 8.87753 59.2664 10.4192 59.7772 12.3896H54.6049ZM67.3775 12.8001C67.9248 11.9609 68.609 11.3041 69.43 10.8297C70.251 10.3371 71.1632 10.0908 72.1666 10.0908V15.0442H70.8804C69.7128 15.0442 68.8371 15.2997 68.2532 15.8105C67.6693 16.3031 67.3775 17.1788 67.3775 18.4377V25.5257H62.6978V10.255H67.3775V12.8001ZM81.3546 25.7446C79.8585 25.7446 78.5085 25.4254 77.3043 24.7868C76.1184 24.1482 75.1788 23.236 74.4856 22.0501C73.8104 20.8642 73.473 19.4776 73.473 17.8903C73.473 16.3213 73.8196 14.9439 74.5129 13.758C75.2061 12.5538 76.1549 11.6325 77.3591 10.9939C78.5632 10.3553 79.9132 10.0361 81.4093 10.0361C82.9054 10.0361 84.2555 10.3553 85.4596 10.9939C86.6638 11.6325 87.6124 12.5538 88.3058 13.758C88.999 14.9439 89.3457 16.3213 89.3457 17.8903C89.3457 19.4594 88.9899 20.846 88.2784 22.0501C87.5851 23.236 86.6272 24.1482 85.4049 24.7868C84.2007 25.4254 82.8506 25.7446 81.3546 25.7446ZM81.3546 21.6943C82.2486 21.6943 83.0057 21.3659 83.626 20.7091C84.2645 20.0523 84.5839 19.1127 84.5839 17.8903C84.5839 16.668 84.2737 15.7284 83.6534 15.0716C83.0513 14.4148 82.3033 14.0864 81.4093 14.0864C80.4971 14.0864 79.74 14.4148 79.1379 15.0716C78.5358 15.7102 78.2348 16.6497 78.2348 17.8903C78.2348 19.1127 78.5267 20.0523 79.1105 20.7091C79.7126 21.3659 80.4606 21.6943 81.3546 21.6943ZM113.749 10.255L109.616 25.5257H104.444L102.036 15.6189L99.5458 25.5257H94.4009L90.2411 10.255H94.9208L97.0828 21.1744L99.6553 10.255H104.608L107.208 21.1196L109.343 10.255H113.749ZM123.196 14.1411H120.679V25.5257H115.999V14.1411H114.302V10.255H115.999V9.81716C115.999 7.93801 116.537 6.51494 117.614 5.54795C118.69 4.56275 120.268 4.07014 122.348 4.07014C122.694 4.07014 122.95 4.07927 123.114 4.09751V8.06569C122.221 8.01096 121.591 8.13863 121.226 8.44882C120.861 8.75901 120.679 9.3154 120.679 10.1182V10.255H123.196V14.1411ZM140.994 10.255L131.416 32.7779H126.38L129.883 25.0057L123.671 10.255H128.898L132.429 19.806L135.931 10.255H140.994Z" fill="white"/>
<path d="M20.1565 7.63203C20.1565 3.5628 23.4552 0.264065 27.5244 0.264065H34.8924V7.63203C34.8924 11.7013 31.5937 15 27.5244 15C23.4552 15 20.1565 11.7013 20.1565 7.63203Z" fill="#FF6D35"/>
<path d="M27.5243 32.6771C23.4551 32.6771 20.1564 29.3784 20.1564 25.3092V17.9412H27.5243C31.5936 17.9412 34.8923 21.2399 34.8923 25.3092C34.8923 29.3784 31.5936 32.6771 27.5243 32.6771Z" fill="#5CC97B"/>
<path d="M17.8348 15.6522C17.8348 7.47541 11.7086 0.846943 4.15147 0.846943V25.0214C4.15147 29.1097 7.21458 32.424 10.9932 32.424C14.7718 32.424 17.8348 29.1097 17.8348 25.0214V15.6522Z" fill="#3D96F4"/>
</g>
<defs>
<filter id="filter0_d_1_607" x="0.151466" y="0.264065" width="144.843" height="40.5138" filterUnits="userSpaceOnUse" color-interpolation-filters="sRGB">
<feFlood flood-opacity="0" result="BackgroundImageFix"/>
<feColorMatrix in="SourceAlpha" type="matrix" values="0 0 0 0 0 0 0 0 0 0 0 0 0 0 0 0 0 0 127 0" result="hardAlpha"/>
<feOffset dy="4"/>
<feGaussianBlur stdDeviation="2"/>
<feComposite in2="hardAlpha" operator="out"/>
<feColorMatrix type="matrix" values="0 0 0 0 0 0 0 0 0 0 0 0 0 0 0 0 0 0 0.25 0"/>
<feBlend mode="normal" in2="BackgroundImageFix" result="effect1_dropShadow_1_607"/>
<feBlend mode="normal" in="SourceGraphic" in2="effect1_dropShadow_1_607" result="shape"/>
</filter>
</defs>
</svg>
